# xmcd
#
# Track frame offsets:
#	150
#	15826
#	34629
#	46229
#	63689
#	76056
#	92374
#	106698
#	123412
#	143742
#	159134
#	173001
#	189354
#	209252
#	227881
#	241245
#	255063
#	271315
#
# Disc length: 3796 seconds
#
# Revision: 1
# Processed by: cddbd v1.5.2PL0 Copyright (c) Steve Scherf et al.
# Submitted via: audiograbber 1.83.01
#
DISCID=cc0ed212
DTITLE=Bill Crews - Along the Rio Bill Crews
DYEAR=2000
DGENRE=Country
TTITLE0=Along The Rio
TTITLE1=Counting The Stars
TTITLE2=The Good Life´s Begun
TTITLE3=Meter Maid
TTITLE4=Island Time
TTITLE5=Earley Morning Rain
TTITLE6=Rosalita
TTITLE7=Another Time Another Place
TTITLE8=Too Much...
TTITLE9=Coconut Island
TTITLE10=Better Days
TTITLE11=I Don´t Feel Like Walking
TTITLE12=Travling With Me
TTITLE13=I´m Looking For Someone
TTITLE14=Muy Bien Adios Amigo
TTITLE15=Carolina Sundays
TTITLE16=Slow Dancing The Night Away
TTITLE17=Searching For My Next Song
EXTD=
EXTT0=
EXTT1=
EXTT2=
EXTT3=
EXTT4=
EXTT5=
EXTT6=
EXTT7=
EXTT8=
EXTT9=
EXTT10=
EXTT11=
EXTT12=
EXTT13=
EXTT14=
EXTT15=
EXTT16=
EXTT17=
PLAYORDER=
